<svg xmlns="http://www.w3.org/2000/svg" viewBox="0 0 960 760"><rect width="960" height="760" fill="#f3efea"/><rect x="92" y="82" width="776" height="570" rx="18" fill="#fbfaf8"/><path d="M214 162h520" stroke="#272927" stroke-width="14" stroke-linecap="round"/><path d="M282 162v380M666 162v380" stroke="#272927" stroke-width="9" stroke-linecap="round"/><path d="M382 174c0 42-54 52-70 116l-46 218h226l-48-218c-14-64-62-74-62-116z" fill="#8f6c75"/><path d="M546 188c-22 70-38 122-90 166 58 32 76 78 98 160h156c-22-108-56-194-84-326h-80z" fill="#686f62"/><circle cx="704" cy="500" r="58" fill="#d8a7ad"/><path d="M654 500c7 45 24 76 50 76s43-31 50-76" fill="none" stroke="#272927" stroke-width="8"/><rect x="156" y="530" width="150" height="74" rx="10" fill="#272927"/><circle cx="194" cy="567" r="10" fill="#fbfaf8"/><circle cx="266" cy="567" r="10" fill="#fbfaf8"/><text x="130" y="704" font-family="Georgia,serif" font-size="42" fill="#272927">Moda y complementos para mujer</text></svg>