<svg xmlns="http://www.w3.org/2000/svg" viewBox="0 0 960 760" role="img" aria-labelledby="t d">
  <title id="t">Marga Moda storefront editorial</title>
  <desc id="d">Boutique storefront with mirrors, folded garments and accessory display.</desc>
  <rect width="960" height="760" fill="#fbf4ef"/>
  <rect x="84" y="78" width="792" height="600" rx="6" fill="#fffdf9" stroke="#e7d7ce" stroke-width="4"/>
  <rect x="128" y="126" width="312" height="456" rx="4" fill="#f1dfd7"/>
  <rect x="168" y="166" width="232" height="376" rx="116" fill="#fffaf7" stroke="#2b2420" stroke-width="7"/>
  <path d="M214 514c38-46 102-46 140 0" fill="none" stroke="#a14f40" stroke-width="12" stroke-linecap="round"/>
  <rect x="492" y="142" width="292" height="88" rx="3" fill="#2b2420"/>
  <text x="526" y="198" font-family="Helvetica,Arial,sans-serif" font-size="30" font-weight="700" fill="#fffdf9">Marga Moda</text>
  <rect x="492" y="276" width="124" height="162" rx="6" fill="#a14f40"/>
  <rect x="642" y="276" width="142" height="162" rx="6" fill="#d6b2a4"/>
  <path d="M518 476h266" stroke="#2b2420" stroke-width="10" stroke-linecap="round"/>
  <circle cx="532" cy="534" r="30" fill="#ead8ce" stroke="#2b2420" stroke-width="6"/>
  <rect x="586" y="508" width="92" height="62" rx="12" fill="#2b2420"/>
  <path d="M604 508c8-28 50-28 58 0" fill="none" stroke="#fffdf9" stroke-width="6"/>
  <circle cx="732" cy="538" r="34" fill="#8c6b62"/>
  <text x="126" y="704" font-family="Helvetica,Arial,sans-serif" font-size="34" font-weight="700" fill="#2b2420">Moda seleccionada en tienda</text>
</svg>
